<?xml version="1.0" encoding="utf-8"?>
<!-- Generator: Adobe Illustrator 18.1.1, SVG Export Plug-In . SVG Version: 6.00 Build 0)  -->
<!DOCTYPE svg PUBLIC "-//W3C//DTD SVG 1.1//EN" "http://www.w3.org/Graphics/SVG/1.1/DTD/svg11.dtd">
<svg version="1.1" id="Layer_1" xmlns="http://www.w3.org/2000/svg" xmlns:xlink="http://www.w3.org/1999/xlink" x="0px" y="0px"
	 viewBox="0 0 600 400" enable-background="new 0 0 600 400" xml:space="preserve">
<path fill="#3E86AD" d="M413.8,294H186.3c-5.7,0-10.2-4.6-10.2-10.2v-52.5c0-5.7,4.6-10.2,10.2-10.2h227.5c5.7,0,10.2,4.6,10.2,10.2
	v52.5C424.1,289.4,419.5,294,413.8,294z"/>
<path fill="#66AEE0" d="M413.8,168H186.3c-5.7,0-10.2-4.6-10.2-10.2v-52.5c0-5.7,4.6-10.2,10.2-10.2h227.5c5.7,0,10.2,4.6,10.2,10.2
	v52.5C424.1,163.4,419.5,168,413.8,168z"/>
<g>
	<path fill="#F1F8FD" d="M261.7,137.7h4.3v-12.4h-4.3v-2.6h11.7v2.6h-4.3v12.4h4.3v2.6h-11.7V137.7z"/>
	<path fill="#F1F8FD" d="M278,122.7h5.9c1,0,1.9,0.1,2.7,0.3c0.8,0.2,1.5,0.5,2.1,0.9c0.6,0.4,1.1,1,1.4,1.7
		c0.3,0.7,0.5,1.6,0.5,2.6c0,1-0.2,1.8-0.5,2.5c-0.3,0.7-0.8,1.3-1.4,1.8c-0.6,0.5-1.3,0.8-2.1,1.1c-0.8,0.2-1.7,0.3-2.7,0.3h-2.8
		v6.5H278V122.7z M283.7,131.4c2.6,0,3.9-1.1,3.9-3.2c0-1.1-0.3-1.9-1-2.3c-0.6-0.4-1.6-0.6-2.9-0.6h-2.6v6.2H283.7z"/>
	<path fill="#F1F8FD" d="M295.2,136c0.7,0.6,1.4,1.1,2.3,1.4c0.8,0.4,1.7,0.6,2.6,0.6c1.1,0,1.9-0.2,2.5-0.6s0.8-1,0.8-1.6
		c0-0.4-0.1-0.7-0.2-0.9c-0.1-0.3-0.3-0.5-0.6-0.7s-0.6-0.4-0.9-0.5c-0.4-0.2-0.8-0.3-1.2-0.5L298,132c-0.5-0.2-0.9-0.4-1.4-0.7
		c-0.5-0.3-0.9-0.6-1.2-1c-0.4-0.4-0.6-0.8-0.9-1.3c-0.2-0.5-0.3-1.1-0.3-1.7c0-0.7,0.2-1.4,0.5-2c0.3-0.6,0.7-1.1,1.3-1.6
		s1.2-0.8,1.9-1.1c0.7-0.3,1.6-0.4,2.5-0.4c1.1,0,2.1,0.2,3.1,0.6c1,0.4,1.8,0.9,2.6,1.6l-1.6,2c-0.6-0.5-1.2-0.8-1.9-1.1
		c-0.6-0.3-1.4-0.4-2.2-0.4c-0.9,0-1.6,0.2-2.2,0.6c-0.5,0.4-0.8,0.9-0.8,1.5c0,0.3,0.1,0.6,0.2,0.9c0.2,0.2,0.4,0.5,0.7,0.6
		c0.3,0.2,0.6,0.4,1,0.5s0.8,0.3,1.1,0.5l2.3,1c0.6,0.2,1.1,0.5,1.5,0.8c0.5,0.3,0.9,0.6,1.2,1c0.3,0.4,0.6,0.8,0.8,1.3
		c0.2,0.5,0.3,1.1,0.3,1.7c0,0.7-0.1,1.4-0.4,2c-0.3,0.6-0.7,1.2-1.3,1.7c-0.6,0.5-1.2,0.9-2.1,1.1c-0.8,0.3-1.7,0.4-2.8,0.4
		c-1.2,0-2.4-0.2-3.6-0.7c-1.1-0.4-2.1-1.1-3-1.9L295.2,136z"/>
	<path fill="#F1F8FD" d="M310,122.7h3.1v11.2c0,1.5,0.3,2.5,0.8,3.1c0.5,0.6,1.3,1,2.2,1c1,0,1.7-0.3,2.3-1c0.6-0.6,0.8-1.7,0.8-3.1
		v-11.2h3v10.9c0,2.4-0.5,4.2-1.6,5.4c-1.1,1.1-2.6,1.7-4.5,1.7c-1.9,0-3.4-0.6-4.5-1.7s-1.6-2.9-1.6-5.3V122.7z"/>
	<path fill="#F1F8FD" d="M326.2,122.7h3.2l2.1,6.9l0.8,2.7h0.1l0.7-2.7l2.1-6.9h3.2v17.7h-2.6v-7.8c0-0.4,0-0.9,0-1.5
		c0-0.6,0.1-1.2,0.1-1.8c0-0.6,0.1-1.3,0.1-1.8c0-0.6,0.1-1.1,0.1-1.5h-0.1l-1.3,4.3l-1.9,5.5h-1.5l-1.9-5.5l-1.2-4.3h-0.1
		c0,0.4,0.1,0.9,0.1,1.5c0,0.6,0.1,1.2,0.1,1.8c0,0.6,0.1,1.3,0.1,1.8c0,0.6,0,1.1,0,1.5v7.8h-2.5V122.7z"/>
</g>
<path fill="#66AEE0" d="M413.8,290.6H186.3c-5.7,0-10.2-4.6-10.2-10.2v-52.5c0-5.7,4.6-10.2,10.2-10.2h227.5
	c5.7,0,10.2,4.6,10.2,10.2v52.5C424.1,286,419.5,290.6,413.8,290.6z"/>
<g>
	<path fill="#539CBC" d="M261.7,260.3h4.3v-12.4h-4.3v-2.6h11.7v2.6h-4.3v12.4h4.3v2.6h-11.7V260.3z"/>
	<path fill="#539CBC" d="M278,245.3h5.9c1,0,1.9,0.1,2.7,0.3c0.8,0.2,1.5,0.5,2.1,0.9c0.6,0.4,1.1,1,1.4,1.7
		c0.3,0.7,0.5,1.6,0.5,2.6c0,1-0.2,1.8-0.5,2.5c-0.3,0.7-0.8,1.3-1.4,1.8c-0.6,0.5-1.3,0.8-2.1,1.1c-0.8,0.2-1.7,0.3-2.7,0.3h-2.8
		v6.5H278V245.3z M283.7,254c2.6,0,3.9-1.1,3.9-3.2c0-1.1-0.3-1.9-1-2.3c-0.6-0.4-1.6-0.6-2.9-0.6h-2.6v6.2H283.7z"/>
	<path fill="#539CBC" d="M295.2,258.5c0.7,0.6,1.4,1.1,2.3,1.4c0.8,0.4,1.7,0.6,2.6,0.6c1.1,0,1.9-0.2,2.5-0.6s0.8-1,0.8-1.6
		c0-0.4-0.1-0.7-0.2-0.9c-0.1-0.3-0.3-0.5-0.6-0.7s-0.6-0.4-0.9-0.5c-0.4-0.2-0.8-0.3-1.2-0.5l-2.4-1.1c-0.5-0.2-0.9-0.4-1.4-0.7
		c-0.5-0.3-0.9-0.6-1.2-1c-0.4-0.4-0.6-0.8-0.9-1.3c-0.2-0.5-0.3-1.1-0.3-1.7c0-0.7,0.2-1.4,0.5-2c0.3-0.6,0.7-1.1,1.3-1.6
		s1.2-0.8,1.9-1.1c0.7-0.3,1.6-0.4,2.5-0.4c1.1,0,2.1,0.2,3.1,0.6c1,0.4,1.8,0.9,2.6,1.6l-1.6,2c-0.6-0.5-1.2-0.8-1.9-1.1
		c-0.6-0.3-1.4-0.4-2.2-0.4c-0.9,0-1.6,0.2-2.2,0.6c-0.5,0.4-0.8,0.9-0.8,1.5c0,0.3,0.1,0.6,0.2,0.9c0.2,0.2,0.4,0.5,0.7,0.6
		c0.3,0.2,0.6,0.4,1,0.5s0.8,0.3,1.1,0.5l2.3,1c0.6,0.2,1.1,0.5,1.5,0.8c0.5,0.3,0.9,0.6,1.2,1c0.3,0.4,0.6,0.8,0.8,1.3
		c0.2,0.5,0.3,1.1,0.3,1.7c0,0.7-0.1,1.4-0.4,2c-0.3,0.6-0.7,1.2-1.3,1.7c-0.6,0.5-1.2,0.9-2.1,1.1c-0.8,0.3-1.7,0.4-2.8,0.4
		c-1.2,0-2.4-0.2-3.6-0.7c-1.1-0.4-2.1-1.1-3-1.9L295.2,258.5z"/>
	<path fill="#539CBC" d="M310,245.3h3.1v11.2c0,1.5,0.3,2.5,0.8,3.1c0.5,0.6,1.3,1,2.2,1c1,0,1.7-0.3,2.3-1c0.6-0.6,0.8-1.7,0.8-3.1
		v-11.2h3v10.9c0,2.4-0.5,4.2-1.6,5.4c-1.1,1.1-2.6,1.7-4.5,1.7c-1.9,0-3.4-0.6-4.5-1.7s-1.6-2.9-1.6-5.3V245.3z"/>
	<path fill="#539CBC" d="M326.2,245.3h3.2l2.1,6.9l0.8,2.7h0.1l0.7-2.7l2.1-6.9h3.2v17.7h-2.6v-7.8c0-0.4,0-0.9,0-1.5
		c0-0.6,0.1-1.2,0.1-1.8c0-0.6,0.1-1.3,0.1-1.8c0-0.6,0.1-1.1,0.1-1.5h-0.1l-1.3,4.3l-1.9,5.5h-1.5l-1.9-5.5l-1.2-4.3h-0.1
		c0,0.4,0.1,0.9,0.1,1.5c0,0.6,0.1,1.2,0.1,1.8c0,0.6,0.1,1.3,0.1,1.8c0,0.6,0,1.1,0,1.5v7.8h-2.5V245.3z"/>
</g>
<g>
	<path fill="#F1F8FD" d="M261.7,259.2h4.3v-12.4h-4.3v-2.6h11.7v2.6h-4.3v12.4h4.3v2.6h-11.7V259.2z"/>
	<path fill="#F1F8FD" d="M278,244.2h5.9c1,0,1.9,0.1,2.7,0.3c0.8,0.2,1.5,0.5,2.1,0.9c0.6,0.4,1.1,1,1.4,1.7
		c0.3,0.7,0.5,1.6,0.5,2.6c0,1-0.2,1.8-0.5,2.5c-0.3,0.7-0.8,1.3-1.4,1.8c-0.6,0.5-1.3,0.8-2.1,1.1c-0.8,0.2-1.7,0.3-2.7,0.3h-2.8
		v6.5H278V244.2z M283.7,252.9c2.6,0,3.9-1.1,3.9-3.2c0-1.1-0.3-1.9-1-2.3c-0.6-0.4-1.6-0.6-2.9-0.6h-2.6v6.2H283.7z"/>
	<path fill="#F1F8FD" d="M295.2,257.5c0.7,0.6,1.4,1.1,2.3,1.4c0.8,0.4,1.7,0.6,2.6,0.6c1.1,0,1.9-0.2,2.5-0.6s0.8-1,0.8-1.6
		c0-0.4-0.1-0.7-0.2-0.9c-0.1-0.3-0.3-0.5-0.6-0.7s-0.6-0.4-0.9-0.5c-0.4-0.2-0.8-0.3-1.2-0.5l-2.4-1.1c-0.5-0.2-0.9-0.4-1.4-0.7
		c-0.5-0.3-0.9-0.6-1.2-1c-0.4-0.4-0.6-0.8-0.9-1.3c-0.2-0.5-0.3-1.1-0.3-1.7c0-0.7,0.2-1.4,0.5-2c0.3-0.6,0.7-1.1,1.3-1.6
		s1.2-0.8,1.9-1.1c0.7-0.3,1.6-0.4,2.5-0.4c1.1,0,2.1,0.2,3.1,0.6c1,0.4,1.8,0.9,2.6,1.6l-1.6,2c-0.6-0.5-1.2-0.8-1.9-1.1
		c-0.6-0.3-1.4-0.4-2.2-0.4c-0.9,0-1.6,0.2-2.2,0.6c-0.5,0.4-0.8,0.9-0.8,1.5c0,0.3,0.1,0.6,0.2,0.9c0.2,0.2,0.4,0.5,0.7,0.6
		c0.3,0.2,0.6,0.4,1,0.5s0.8,0.3,1.1,0.5l2.3,1c0.6,0.2,1.1,0.5,1.5,0.8c0.5,0.3,0.9,0.6,1.2,1c0.3,0.4,0.6,0.8,0.8,1.3
		c0.2,0.5,0.3,1.1,0.3,1.7c0,0.7-0.1,1.4-0.4,2c-0.3,0.6-0.7,1.2-1.3,1.7c-0.6,0.5-1.2,0.9-2.1,1.1c-0.8,0.3-1.7,0.4-2.8,0.4
		c-1.2,0-2.4-0.2-3.6-0.7c-1.1-0.4-2.1-1.1-3-1.9L295.2,257.5z"/>
	<path fill="#F1F8FD" d="M310,244.2h3.1v11.2c0,1.5,0.3,2.5,0.8,3.1c0.5,0.6,1.3,1,2.2,1c1,0,1.7-0.3,2.3-1c0.6-0.6,0.8-1.7,0.8-3.1
		v-11.2h3v10.9c0,2.4-0.5,4.2-1.6,5.4c-1.1,1.1-2.6,1.7-4.5,1.7c-1.9,0-3.4-0.6-4.5-1.7s-1.6-2.9-1.6-5.3V244.2z"/>
	<path fill="#F1F8FD" d="M326.2,244.2h3.2l2.1,6.9l0.8,2.7h0.1l0.7-2.7l2.1-6.9h3.2v17.7h-2.6V254c0-0.4,0-0.9,0-1.5
		c0-0.6,0.1-1.2,0.1-1.8c0-0.6,0.1-1.3,0.1-1.8c0-0.6,0.1-1.1,0.1-1.5h-0.1l-1.3,4.3l-1.9,5.5h-1.5l-1.9-5.5l-1.2-4.3h-0.1
		c0,0.4,0.1,0.9,0.1,1.5c0,0.6,0.1,1.2,0.1,1.8c0,0.6,0.1,1.3,0.1,1.8c0,0.6,0,1.1,0,1.5v7.8h-2.5V244.2z"/>
</g>
</svg>
