<?xml version="1.0" encoding="utf-8"?>
<!-- Generator: Adobe Illustrator 18.1.1, SVG Export Plug-In . SVG Version: 6.00 Build 0)  -->
<!DOCTYPE svg PUBLIC "-//W3C//DTD SVG 1.1//EN" "http://www.w3.org/Graphics/SVG/1.1/DTD/svg11.dtd">
<svg version="1.1" id="Layer_1" xmlns="http://www.w3.org/2000/svg" xmlns:xlink="http://www.w3.org/1999/xlink" x="0px" y="0px"
	 viewBox="0 0 600 400" enable-background="new 0 0 600 400" xml:space="preserve">
<g>
	<g>
		<path fill="none" stroke="#3E86AD" stroke-width="2" stroke-miterlimit="10" d="M423.5,335.3H176.5c-0.3,0-0.5-0.2-0.5-0.5v-71.9
			c0-0.3,0.2-0.5,0.5-0.5h246.9c0.3,0,0.5,0.2,0.5,0.5v71.9C424,335,423.8,335.3,423.5,335.3z"/>
		<g>
			<path fill="#3E86AD" d="M261.6,304.9h4.3v-12.4h-4.3v-2.6h11.7v2.6H269v12.4h4.3v2.6h-11.7V304.9z"/>
			<path fill="#3E86AD" d="M277.9,289.9h5.9c1,0,1.9,0.1,2.7,0.3c0.8,0.2,1.5,0.5,2.1,0.9c0.6,0.4,1.1,1,1.4,1.7
				c0.3,0.7,0.5,1.6,0.5,2.6c0,1-0.2,1.8-0.5,2.5c-0.3,0.7-0.8,1.3-1.4,1.8c-0.6,0.5-1.3,0.8-2.1,1.1c-0.8,0.2-1.7,0.3-2.7,0.3H281
				v6.5h-3.1V289.9z M283.6,298.6c2.6,0,3.9-1.1,3.9-3.2c0-1.1-0.3-1.9-1-2.3c-0.6-0.4-1.6-0.6-2.9-0.6H281v6.2H283.6z"/>
			<path fill="#3E86AD" d="M295.2,303.2c0.7,0.6,1.4,1.1,2.3,1.4c0.8,0.4,1.7,0.6,2.6,0.6c1.1,0,1.9-0.2,2.5-0.6s0.8-1,0.8-1.6
				c0-0.4-0.1-0.7-0.2-0.9c-0.1-0.3-0.3-0.5-0.6-0.7s-0.6-0.4-0.9-0.5c-0.4-0.2-0.8-0.3-1.2-0.5l-2.4-1.1c-0.5-0.2-0.9-0.4-1.4-0.7
				c-0.5-0.3-0.9-0.6-1.2-1c-0.4-0.4-0.6-0.8-0.9-1.3c-0.2-0.5-0.3-1.1-0.3-1.7c0-0.7,0.2-1.4,0.5-2c0.3-0.6,0.7-1.1,1.3-1.6
				s1.2-0.8,1.9-1.1c0.7-0.3,1.6-0.4,2.5-0.4c1.1,0,2.1,0.2,3.1,0.6c1,0.4,1.8,0.9,2.6,1.6l-1.6,2c-0.6-0.5-1.2-0.8-1.9-1.1
				c-0.6-0.3-1.4-0.4-2.2-0.4c-0.9,0-1.6,0.2-2.2,0.6c-0.5,0.4-0.8,0.9-0.8,1.5c0,0.3,0.1,0.6,0.2,0.9c0.2,0.2,0.4,0.5,0.7,0.6
				c0.3,0.2,0.6,0.4,1,0.5s0.8,0.3,1.1,0.5l2.3,1c0.6,0.2,1.1,0.5,1.5,0.8c0.5,0.3,0.9,0.6,1.2,1c0.3,0.4,0.6,0.8,0.8,1.3
				c0.2,0.5,0.3,1.1,0.3,1.7c0,0.7-0.1,1.4-0.4,2c-0.3,0.6-0.7,1.2-1.3,1.7c-0.6,0.5-1.2,0.9-2.1,1.1c-0.8,0.3-1.7,0.4-2.8,0.4
				c-1.2,0-2.4-0.2-3.6-0.7c-1.1-0.4-2.1-1.1-3-1.9L295.2,303.2z"/>
			<path fill="#3E86AD" d="M309.9,289.9h3.1v11.2c0,1.5,0.3,2.5,0.8,3.1c0.5,0.6,1.3,1,2.2,1c1,0,1.7-0.3,2.3-1
				c0.6-0.6,0.8-1.7,0.8-3.1v-11.2h3v10.9c0,2.4-0.5,4.2-1.6,5.4c-1.1,1.1-2.6,1.7-4.5,1.7c-1.9,0-3.4-0.6-4.5-1.7s-1.6-2.9-1.6-5.3
				V289.9z"/>
			<path fill="#3E86AD" d="M326.1,289.9h3.2l2.1,6.9l0.8,2.7h0.1l0.7-2.7l2.1-6.9h3.2v17.7h-2.6v-7.8c0-0.4,0-0.9,0-1.5
				c0-0.6,0.1-1.2,0.1-1.8c0-0.6,0.1-1.3,0.1-1.8c0-0.6,0.1-1.1,0.1-1.5h-0.1l-1.3,4.3l-1.9,5.5h-1.5l-1.9-5.5l-1.2-4.3h-0.1
				c0,0.4,0.1,0.9,0.1,1.5c0,0.6,0.1,1.2,0.1,1.8c0,0.6,0.1,1.3,0.1,1.8c0,0.6,0,1.1,0,1.5v7.8h-2.5V289.9z"/>
		</g>
	</g>
	<g>
		<path fill="none" stroke="#3E86AD" stroke-width="2" stroke-miterlimit="10" d="M423.5,236.5H176.5c-0.3,0-0.5-0.2-0.5-0.5V164
			c0-0.3,0.2-0.5,0.5-0.5h246.9c0.3,0,0.5,0.2,0.5,0.5V236C424,236.3,423.8,236.5,423.5,236.5z"/>
		<g>
			<path fill="#3E86AD" d="M229.1,195.2c0.4-0.2,0.6-0.2,0.6-0.1c0,0.1,0.1,0.3,0.1,0.5v13c0,0.4-0.2,0.8-0.6,1.1
				c-0.4,0.4-0.8,0.6-1.2,0.6h-28.6c-0.4,0-0.8-0.2-1.1-0.6c-0.4-0.4-0.6-0.8-0.6-1.1v-13c0-0.2,0-0.4,0-0.5c0-0.1,0.2-0.1,0.6,0.1
				c0.1,0.1,0.6,0.3,1.3,0.7c0.7,0.4,1.6,0.8,2.6,1.4c1,0.5,2,1.1,3.1,1.6c1.1,0.6,2.1,1.1,3.1,1.6c0.9,0.5,1.8,0.9,2.5,1.3
				c0.7,0.4,1.1,0.6,1.2,0.6c0.5,0.2,1,0.4,1.6,0.4c0.6,0,1.1-0.1,1.6-0.4c0.1,0,0.5-0.2,1.2-0.6c0.7-0.4,1.5-0.8,2.5-1.3
				c0.9-0.5,2-1,3.1-1.6c1.1-0.6,2.2-1.1,3.1-1.6c1-0.5,1.8-1,2.5-1.4C228.4,195.5,228.9,195.3,229.1,195.2z M198.7,191.6
				c-0.2-0.1-0.4-0.2-0.6-0.5c-0.2-0.2-0.3-0.4-0.3-0.6c0-0.2,0-0.4,0.1-0.6c0.1-0.2,0.4-0.2,0.7-0.2h30.1c0.4,0,0.6,0.1,0.7,0.2
				c0.1,0.2,0.2,0.4,0.1,0.6c0,0.2-0.2,0.4-0.4,0.6c-0.2,0.2-0.4,0.4-0.6,0.5c-0.1,0.1-0.6,0.3-1.3,0.7c-0.7,0.4-1.6,0.8-2.5,1.4
				c-1,0.5-2,1.1-3.1,1.6c-1.1,0.6-2.1,1.1-3,1.6c-0.9,0.5-1.7,1-2.4,1.3c-0.7,0.3-1,0.5-1.1,0.6c-0.5,0.2-1,0.4-1.6,0.4
				c-0.6,0-1.2-0.1-1.6-0.4c-0.1,0-0.5-0.2-1.1-0.6c-0.6-0.3-1.4-0.8-2.4-1.3c-0.9-0.5-1.9-1.1-3-1.6c-1.1-0.6-2.1-1.1-3.1-1.6
				c-1-0.5-1.8-1-2.5-1.4C199.3,191.9,198.8,191.7,198.7,191.6z"/>
		</g>
	</g>
	<g>
		<path fill="none" stroke="#3E86AD" stroke-width="2" stroke-miterlimit="10" d="M423.5,137.7H176.5c-0.3,0-0.5-0.2-0.5-0.5V65.3
			c0-0.3,0.2-0.5,0.5-0.5h246.9c0.3,0,0.5,0.2,0.5,0.5v71.9C424,137.5,423.8,137.7,423.5,137.7z"/>
		<path fill="#3E86AD" d="M223.2,109.2c2.2,0.8,4,1.6,5.3,2.4c1.3,0.8,2,1.4,2,2v3.8h-16.7H197v-3.8c0-0.5,0.7-1.2,2-2
			c1.3-0.8,3.1-1.6,5.3-2.4c2.2-0.8,3.7-1.6,4.6-2.4c0.9-0.8,1.3-2,1.3-3.5c0-0.4-0.1-0.7-0.2-1c-0.1-0.2-0.3-0.4-0.5-0.7
			c-0.2-0.2-0.4-0.5-0.6-0.9c-0.2-0.4-0.4-1-0.5-1.8c-0.1-0.3-0.2-0.5-0.4-0.6s-0.3-0.2-0.5-0.2c-0.2-0.1-0.4-0.3-0.5-0.6
			c-0.2-0.3-0.3-0.8-0.3-1.6c0-0.6,0.1-1,0.4-1.2c0.1-0.1,0.2-0.2,0.4-0.3c-0.1-0.3-0.2-0.7-0.2-1.1c-0.1-0.3-0.2-0.7-0.2-1
			c0-0.3-0.1-0.7-0.1-1.1c0-0.4,0-1,0.2-1.7c0.2-0.7,0.5-1.4,1-2c0.5-0.7,1.2-1.2,2.2-1.7s2.1-0.7,3.7-0.7c1.5,0,2.8,0.2,3.7,0.7
			c0.9,0.5,1.7,1,2.2,1.7c0.5,0.7,0.9,1.3,1,2c0.2,0.7,0.2,1.2,0.2,1.7c0,0.4-0.1,0.7-0.1,1.1c0,0.3-0.1,0.7-0.1,1
			c-0.1,0.4-0.2,0.7-0.2,1.1c0.1,0,0.2,0.1,0.3,0.3c0.1,0.1,0.2,0.2,0.2,0.5s0.1,0.5,0.1,0.7c0,0.8-0.1,1.3-0.3,1.6
			c-0.1,0.3-0.3,0.5-0.5,0.6c-0.2,0.1-0.4,0.2-0.5,0.2c-0.2,0.1-0.3,0.3-0.3,0.6c-0.1,0.8-0.3,1.4-0.5,1.8c-0.2,0.4-0.4,0.7-0.6,0.9
			c-0.2,0.2-0.4,0.5-0.5,0.7s-0.2,0.5-0.2,1c0,1.5,0.4,2.6,1.2,3.4C219.5,107.5,221,108.3,223.2,109.2z"/>
	</g>
</g>
</svg>
